<svg width="220" height="50" viewBox="0 0 220 50" fill="none" xmlns="http://www.w3.org/2000/svg">
<rect x="12" y="13" width="206" height="34" fill="white" stroke="black" stroke-width="4"/>
<rect x="2" y="3" width="205" height="34" fill="#FCBF38" stroke="black" stroke-width="4"/>
<line x1="207.48" y1="36.6547" x2="217.48" y2="47.6547" stroke="black" stroke-width="4"/>
<path d="M1.47958 37.6548L11.4996 48.0002" stroke="black" stroke-width="4"/>
<path d="M207.57 2.36655L218.5 12.4997" stroke="black" stroke-width="4"/>
<path d="M26.0375 16.964C26.0015 16.904 25.8755 16.814 25.6595 16.694C25.4435 16.562 25.1735 16.424 24.8495 16.28C24.5255 16.136 24.1715 16.01 23.7875 15.902C23.4035 15.794 23.0195 15.74 22.6355 15.74C22.1315 15.74 21.7415 15.83 21.4655 16.01C21.1895 16.178 21.0515 16.442 21.0515 16.802C21.0515 17.09 21.1535 17.318 21.3575 17.486C21.5735 17.654 21.8795 17.804 22.2755 17.936C22.6715 18.056 23.1575 18.2 23.7335 18.368C24.5495 18.584 25.2575 18.848 25.8575 19.16C26.4575 19.46 26.9135 19.85 27.2255 20.33C27.5495 20.81 27.7115 21.446 27.7115 22.238C27.7115 22.958 27.5795 23.57 27.3155 24.074C27.0515 24.566 26.6915 24.968 26.2355 25.28C25.7915 25.58 25.2815 25.802 24.7055 25.946C24.1295 26.078 23.5355 26.144 22.9235 26.144C22.2995 26.144 21.6575 26.084 20.9975 25.964C20.3495 25.832 19.7255 25.652 19.1255 25.424C18.5255 25.184 17.9735 24.896 17.4695 24.56L18.7655 21.986C18.8135 22.046 18.9695 22.16 19.2335 22.328C19.4975 22.484 19.8215 22.652 20.2055 22.832C20.6015 23 21.0395 23.15 21.5195 23.282C21.9995 23.414 22.4855 23.48 22.9775 23.48C23.5055 23.48 23.8955 23.396 24.1475 23.228C24.4115 23.06 24.5435 22.826 24.5435 22.526C24.5435 22.202 24.4055 21.95 24.1295 21.77C23.8655 21.59 23.4995 21.428 23.0315 21.284C22.5755 21.14 22.0475 20.978 21.4475 20.798C20.6675 20.558 20.0195 20.288 19.5035 19.988C18.9995 19.688 18.6215 19.322 18.3695 18.89C18.1295 18.458 18.0095 17.918 18.0095 17.27C18.0095 16.37 18.2195 15.614 18.6395 15.002C19.0715 14.378 19.6475 13.91 20.3675 13.598C21.0875 13.274 21.8735 13.112 22.7255 13.112C23.3255 13.112 23.9015 13.184 24.4535 13.328C25.0175 13.472 25.5395 13.652 26.0195 13.868C26.5115 14.084 26.9495 14.3 27.3335 14.516L26.0375 16.964ZM33.7277 26.18C32.9237 26.18 32.2097 26.054 31.5857 25.802C30.9617 25.538 30.4277 25.184 29.9837 24.74C29.5517 24.296 29.2217 23.786 28.9937 23.21C28.7657 22.622 28.6517 22.01 28.6517 21.374C28.6517 20.462 28.8497 19.634 29.2457 18.89C29.6537 18.134 30.2357 17.528 30.9917 17.072C31.7477 16.604 32.6597 16.37 33.7277 16.37C34.7957 16.37 35.7017 16.598 36.4457 17.054C37.2017 17.51 37.7777 18.11 38.1737 18.854C38.5697 19.586 38.7677 20.384 38.7677 21.248C38.7677 21.416 38.7557 21.584 38.7317 21.752C38.7197 21.908 38.7077 22.046 38.6957 22.166H31.7117C31.7477 22.586 31.8617 22.94 32.0537 23.228C32.2577 23.516 32.5157 23.738 32.8277 23.894C33.1397 24.038 33.4697 24.11 33.8177 24.11C34.2497 24.11 34.6517 24.008 35.0237 23.804C35.4077 23.6 35.6717 23.324 35.8157 22.976L38.2637 23.66C38.0237 24.152 37.6817 24.59 37.2377 24.974C36.8057 25.346 36.2897 25.64 35.6897 25.856C35.1017 26.072 34.4477 26.18 33.7277 26.18ZM31.6397 20.402H35.7437C35.6957 20.006 35.5817 19.664 35.4017 19.376C35.2217 19.076 34.9817 18.848 34.6817 18.692C34.3817 18.524 34.0517 18.44 33.6917 18.44C33.3197 18.44 32.9837 18.524 32.6837 18.692C32.3957 18.848 32.1617 19.076 31.9817 19.376C31.8017 19.664 31.6877 20.006 31.6397 20.402ZM44.591 26.18C43.787 26.18 43.073 26.054 42.449 25.802C41.825 25.538 41.291 25.184 40.847 24.74C40.415 24.296 40.085 23.786 39.857 23.21C39.629 22.622 39.515 22.01 39.515 21.374C39.515 20.462 39.713 19.634 40.109 18.89C40.517 18.134 41.099 17.528 41.855 17.072C42.611 16.604 43.523 16.37 44.591 16.37C45.659 16.37 46.565 16.598 47.309 17.054C48.065 17.51 48.641 18.11 49.037 18.854C49.433 19.586 49.631 20.384 49.631 21.248C49.631 21.416 49.619 21.584 49.595 21.752C49.583 21.908 49.571 22.046 49.559 22.166H42.575C42.611 22.586 42.725 22.94 42.917 23.228C43.121 23.516 43.379 23.738 43.691 23.894C44.003 24.038 44.333 24.11 44.681 24.11C45.113 24.11 45.515 24.008 45.887 23.804C46.271 23.6 46.535 23.324 46.679 22.976L49.127 23.66C48.887 24.152 48.545 24.59 48.101 24.974C47.669 25.346 47.153 25.64 46.553 25.856C45.965 26.072 45.311 26.18 44.591 26.18ZM42.503 20.402H46.607C46.559 20.006 46.445 19.664 46.265 19.376C46.085 19.076 45.845 18.848 45.545 18.692C45.245 18.524 44.915 18.44 44.555 18.44C44.183 18.44 43.847 18.524 43.547 18.692C43.259 18.848 43.025 19.076 42.845 19.376C42.665 19.664 42.551 20.006 42.503 20.402ZM55.3715 26V13.22H60.1415C61.5455 13.22 62.7155 13.508 63.6515 14.084C64.5995 14.648 65.3135 15.416 65.7935 16.388C66.2735 17.348 66.5135 18.416 66.5135 19.592C66.5135 20.888 66.2495 22.016 65.7215 22.976C65.1935 23.936 64.4495 24.68 63.4895 25.208C62.5415 25.736 61.4255 26 60.1415 26H55.3715ZM63.5075 19.592C63.5075 18.848 63.3755 18.194 63.1115 17.63C62.8475 17.054 62.4635 16.61 61.9595 16.298C61.4555 15.974 60.8495 15.812 60.1415 15.812H58.3235V23.408H60.1415C60.8615 23.408 61.4675 23.246 61.9595 22.922C62.4635 22.586 62.8475 22.13 63.1115 21.554C63.3755 20.966 63.5075 20.312 63.5075 19.592ZM72.5402 26.18C71.7362 26.18 71.0222 26.054 70.3982 25.802C69.7742 25.538 69.2402 25.184 68.7962 24.74C68.3642 24.296 68.0342 23.786 67.8062 23.21C67.5782 22.622 67.4642 22.01 67.4642 21.374C67.4642 20.462 67.6622 19.634 68.0582 18.89C68.4662 18.134 69.0482 17.528 69.8042 17.072C70.5602 16.604 71.4722 16.37 72.5402 16.37C73.6082 16.37 74.5142 16.598 75.2582 17.054C76.0142 17.51 76.5902 18.11 76.9862 18.854C77.3822 19.586 77.5802 20.384 77.5802 21.248C77.5802 21.416 77.5682 21.584 77.5442 21.752C77.5322 21.908 77.5202 22.046 77.5082 22.166H70.5242C70.5602 22.586 70.6742 22.94 70.8662 23.228C71.0702 23.516 71.3282 23.738 71.6402 23.894C71.9522 24.038 72.2822 24.11 72.6302 24.11C73.0622 24.11 73.4642 24.008 73.8362 23.804C74.2202 23.6 74.4842 23.324 74.6282 22.976L77.0762 23.66C76.8362 24.152 76.4942 24.59 76.0502 24.974C75.6182 25.346 75.1022 25.64 74.5022 25.856C73.9142 26.072 73.2602 26.18 72.5402 26.18ZM70.4522 20.402H74.5562C74.5082 20.006 74.3942 19.664 74.2142 19.376C74.0342 19.076 73.7942 18.848 73.4942 18.692C73.1942 18.524 72.8642 18.44 72.5042 18.44C72.1322 18.44 71.7962 18.524 71.4962 18.692C71.2082 18.848 70.9742 19.076 70.7942 19.376C70.6142 19.664 70.5002 20.006 70.4522 20.402ZM82.5035 26.18C81.6995 26.18 80.9135 26.048 80.1455 25.784C79.3775 25.52 78.7295 25.13 78.2015 24.614L79.1915 22.796C79.7675 23.216 80.3255 23.534 80.8655 23.75C81.4175 23.966 81.9335 24.074 82.4135 24.074C82.7855 24.074 83.0735 24.014 83.2775 23.894C83.4815 23.774 83.5835 23.588 83.5835 23.336C83.5835 23.156 83.5235 23.018 83.4035 22.922C83.2835 22.814 83.0975 22.718 82.8455 22.634C82.6055 22.55 82.3055 22.46 81.9455 22.364C81.2255 22.124 80.6255 21.89 80.1455 21.662C79.6655 21.434 79.3055 21.158 79.0655 20.834C78.8255 20.498 78.7055 20.066 78.7055 19.538C78.7055 18.902 78.8615 18.35 79.1735 17.882C79.4975 17.402 79.9535 17.03 80.5415 16.766C81.1295 16.502 81.8315 16.37 82.6475 16.37C83.2955 16.37 83.9255 16.472 84.5375 16.676C85.1615 16.88 85.7435 17.222 86.2835 17.702L85.1675 19.502C84.6275 19.13 84.1475 18.86 83.7275 18.692C83.3075 18.524 82.8995 18.44 82.5035 18.44C82.2995 18.44 82.1135 18.464 81.9455 18.512C81.7775 18.56 81.6395 18.644 81.5315 18.764C81.4355 18.872 81.3875 19.016 81.3875 19.196C81.3875 19.376 81.4355 19.52 81.5315 19.628C81.6395 19.736 81.8015 19.832 82.0175 19.916C82.2455 19.988 82.5275 20.078 82.8635 20.186C83.6435 20.414 84.2915 20.648 84.8075 20.888C85.3235 21.116 85.7075 21.404 85.9595 21.752C86.2235 22.088 86.3555 22.538 86.3555 23.102C86.3555 24.062 86.0075 24.818 85.3115 25.37C84.6275 25.91 83.6915 26.18 82.5035 26.18ZM87.8328 26V16.55H90.7128V26H87.8328ZM87.8328 15.47V12.86H90.7128V15.47H87.8328ZM96.3563 26.036C95.7323 26.036 95.1623 25.916 94.6463 25.676C94.1303 25.424 93.6863 25.082 93.3143 24.65C92.9543 24.206 92.6723 23.696 92.4683 23.12C92.2643 22.544 92.1623 21.926 92.1623 21.266C92.1623 20.57 92.2703 19.928 92.4863 19.34C92.7023 18.752 93.0023 18.236 93.3863 17.792C93.7823 17.336 94.2443 16.988 94.7723 16.748C95.3123 16.496 95.9063 16.37 96.5543 16.37C97.2623 16.37 97.8863 16.526 98.4263 16.838C98.9663 17.138 99.3983 17.558 99.7223 18.098V16.55H102.224V25.352C102.224 26.312 101.99 27.14 101.522 27.836C101.066 28.532 100.424 29.066 99.5963 29.438C98.7803 29.822 97.8323 30.014 96.7523 30.014C95.7443 30.014 94.8743 29.846 94.1423 29.51C93.4223 29.186 92.7923 28.724 92.2523 28.124L93.8003 26.558C94.1483 26.954 94.5803 27.266 95.0963 27.494C95.6123 27.734 96.1643 27.854 96.7523 27.854C97.2203 27.854 97.6523 27.77 98.0483 27.602C98.4443 27.434 98.7563 27.164 98.9843 26.792C99.2243 26.42 99.3443 25.94 99.3443 25.352V24.434C99.0563 24.95 98.6363 25.346 98.0843 25.622C97.5443 25.898 96.9683 26.036 96.3563 26.036ZM97.3463 23.75C97.5743 23.75 97.7843 23.72 97.9763 23.66C98.1803 23.588 98.3663 23.498 98.5343 23.39C98.7023 23.27 98.8583 23.132 99.0023 22.976C99.1463 22.808 99.2603 22.628 99.3443 22.436V20.456C99.2243 20.12 99.0503 19.832 98.8223 19.592C98.5943 19.34 98.3423 19.148 98.0663 19.016C97.7903 18.884 97.5023 18.818 97.2023 18.818C96.9023 18.818 96.6203 18.884 96.3563 19.016C96.0923 19.148 95.8643 19.34 95.6723 19.592C95.4923 19.832 95.3483 20.102 95.2403 20.402C95.1443 20.702 95.0963 21.014 95.0963 21.338C95.0963 21.686 95.1503 22.004 95.2583 22.292C95.3783 22.58 95.5403 22.838 95.7443 23.066C95.9483 23.282 96.1883 23.45 96.4643 23.57C96.7403 23.69 97.0343 23.75 97.3463 23.75ZM113.306 26H110.426V20.69C110.426 20.066 110.306 19.616 110.066 19.34C109.838 19.052 109.532 18.908 109.148 18.908C108.884 18.908 108.614 18.98 108.338 19.124C108.062 19.268 107.81 19.466 107.582 19.718C107.366 19.97 107.198 20.258 107.078 20.582V26H104.198V16.55H106.79V18.134C107.03 17.762 107.33 17.444 107.69 17.18C108.05 16.916 108.464 16.718 108.932 16.586C109.4 16.442 109.91 16.37 110.462 16.37C111.074 16.37 111.566 16.484 111.938 16.712C112.322 16.928 112.61 17.216 112.802 17.576C113.006 17.936 113.138 18.326 113.198 18.746C113.27 19.154 113.306 19.556 113.306 19.952V26ZM127.323 16.964C127.287 16.904 127.161 16.814 126.945 16.694C126.729 16.562 126.459 16.424 126.135 16.28C125.811 16.136 125.457 16.01 125.073 15.902C124.689 15.794 124.305 15.74 123.921 15.74C123.417 15.74 123.027 15.83 122.751 16.01C122.475 16.178 122.337 16.442 122.337 16.802C122.337 17.09 122.439 17.318 122.643 17.486C122.859 17.654 123.165 17.804 123.561 17.936C123.957 18.056 124.443 18.2 125.019 18.368C125.835 18.584 126.543 18.848 127.143 19.16C127.743 19.46 128.199 19.85 128.511 20.33C128.835 20.81 128.997 21.446 128.997 22.238C128.997 22.958 128.865 23.57 128.601 24.074C128.337 24.566 127.977 24.968 127.521 25.28C127.077 25.58 126.567 25.802 125.991 25.946C125.415 26.078 124.821 26.144 124.209 26.144C123.585 26.144 122.943 26.084 122.283 25.964C121.635 25.832 121.011 25.652 120.411 25.424C119.811 25.184 119.259 24.896 118.755 24.56L120.051 21.986C120.099 22.046 120.255 22.16 120.519 22.328C120.783 22.484 121.107 22.652 121.491 22.832C121.887 23 122.325 23.15 122.805 23.282C123.285 23.414 123.771 23.48 124.263 23.48C124.791 23.48 125.181 23.396 125.433 23.228C125.697 23.06 125.829 22.826 125.829 22.526C125.829 22.202 125.691 21.95 125.415 21.77C125.151 21.59 124.785 21.428 124.317 21.284C123.861 21.14 123.333 20.978 122.733 20.798C121.953 20.558 121.305 20.288 120.789 19.988C120.285 19.688 119.907 19.322 119.655 18.89C119.415 18.458 119.295 17.918 119.295 17.27C119.295 16.37 119.505 15.614 119.925 15.002C120.357 14.378 120.933 13.91 121.653 13.598C122.373 13.274 123.159 13.112 124.011 13.112C124.611 13.112 125.187 13.184 125.739 13.328C126.303 13.472 126.825 13.652 127.305 13.868C127.797 14.084 128.235 14.3 128.619 14.516L127.323 16.964ZM134.995 26.18C134.191 26.18 133.471 26.048 132.835 25.784C132.211 25.52 131.683 25.16 131.251 24.704C130.819 24.248 130.489 23.726 130.261 23.138C130.045 22.55 129.937 21.932 129.937 21.284C129.937 20.624 130.045 20 130.261 19.412C130.489 18.824 130.819 18.302 131.251 17.846C131.683 17.39 132.211 17.03 132.835 16.766C133.471 16.502 134.191 16.37 134.995 16.37C135.799 16.37 136.513 16.502 137.137 16.766C137.761 17.03 138.289 17.39 138.721 17.846C139.153 18.302 139.483 18.824 139.711 19.412C139.939 20 140.053 20.624 140.053 21.284C140.053 21.932 139.939 22.55 139.711 23.138C139.483 23.726 139.153 24.248 138.721 24.704C138.289 25.16 137.761 25.52 137.137 25.784C136.513 26.048 135.799 26.18 134.995 26.18ZM132.889 21.284C132.889 21.776 132.979 22.208 133.159 22.58C133.351 22.952 133.603 23.24 133.915 23.444C134.227 23.648 134.587 23.75 134.995 23.75C135.391 23.75 135.745 23.648 136.057 23.444C136.381 23.228 136.633 22.934 136.813 22.562C136.993 22.19 137.083 21.764 137.083 21.284C137.083 20.792 136.993 20.36 136.813 19.988C136.633 19.616 136.381 19.328 136.057 19.124C135.745 18.92 135.391 18.818 134.995 18.818C134.587 18.818 134.227 18.92 133.915 19.124C133.603 19.328 133.351 19.616 133.159 19.988C132.979 20.36 132.889 20.792 132.889 21.284ZM141.445 12.86H144.325V22.634C144.325 23.03 144.397 23.312 144.541 23.48C144.685 23.648 144.889 23.732 145.153 23.732C145.333 23.732 145.513 23.708 145.693 23.66C145.885 23.6 146.053 23.534 146.197 23.462L146.575 25.622C146.215 25.79 145.801 25.922 145.333 26.018C144.865 26.114 144.427 26.162 144.019 26.162C143.203 26.162 142.567 25.946 142.111 25.514C141.667 25.07 141.445 24.446 141.445 23.642V12.86ZM147.421 22.598V16.55H150.301V21.968C150.301 22.544 150.415 22.988 150.643 23.3C150.871 23.6 151.195 23.75 151.615 23.75C151.879 23.75 152.131 23.708 152.371 23.624C152.611 23.528 152.845 23.378 153.073 23.174C153.301 22.97 153.505 22.706 153.685 22.382V16.55H156.565V22.796C156.565 23.084 156.607 23.288 156.691 23.408C156.787 23.516 156.949 23.582 157.177 23.606V26C156.913 26.048 156.679 26.084 156.475 26.108C156.283 26.132 156.109 26.144 155.953 26.144C155.449 26.144 155.047 26.042 154.747 25.838C154.447 25.622 154.261 25.322 154.189 24.938L154.135 24.362C153.703 24.986 153.163 25.448 152.515 25.748C151.879 26.036 151.165 26.18 150.373 26.18C149.413 26.18 148.681 25.874 148.177 25.262C147.673 24.65 147.421 23.762 147.421 22.598ZM164.863 25.496C164.599 25.604 164.305 25.712 163.981 25.82C163.669 25.928 163.339 26.012 162.991 26.072C162.643 26.144 162.301 26.18 161.965 26.18C161.485 26.18 161.041 26.102 160.633 25.946C160.237 25.778 159.919 25.508 159.679 25.136C159.451 24.764 159.337 24.272 159.337 23.66V18.728H158.131V16.55H159.337V13.544H162.217V16.55H164.143V18.728H162.217V22.67C162.217 22.982 162.295 23.21 162.451 23.354C162.607 23.486 162.805 23.552 163.045 23.552C163.249 23.552 163.465 23.516 163.693 23.444C163.933 23.372 164.137 23.294 164.305 23.21L164.863 25.496ZM165.985 26V16.55H168.865V26H165.985ZM165.985 15.47V12.86H168.865V15.47H165.985ZM175.337 26.18C174.533 26.18 173.813 26.048 173.177 25.784C172.553 25.52 172.025 25.16 171.593 24.704C171.161 24.248 170.831 23.726 170.603 23.138C170.387 22.55 170.279 21.932 170.279 21.284C170.279 20.624 170.387 20 170.603 19.412C170.831 18.824 171.161 18.302 171.593 17.846C172.025 17.39 172.553 17.03 173.177 16.766C173.813 16.502 174.533 16.37 175.337 16.37C176.141 16.37 176.855 16.502 177.479 16.766C178.103 17.03 178.631 17.39 179.063 17.846C179.495 18.302 179.825 18.824 180.053 19.412C180.281 20 180.395 20.624 180.395 21.284C180.395 21.932 180.281 22.55 180.053 23.138C179.825 23.726 179.495 24.248 179.063 24.704C178.631 25.16 178.103 25.52 177.479 25.784C176.855 26.048 176.141 26.18 175.337 26.18ZM173.231 21.284C173.231 21.776 173.321 22.208 173.501 22.58C173.693 22.952 173.945 23.24 174.257 23.444C174.569 23.648 174.929 23.75 175.337 23.75C175.733 23.75 176.087 23.648 176.399 23.444C176.723 23.228 176.975 22.934 177.155 22.562C177.335 22.19 177.425 21.764 177.425 21.284C177.425 20.792 177.335 20.36 177.155 19.988C176.975 19.616 176.723 19.328 176.399 19.124C176.087 18.92 175.733 18.818 175.337 18.818C174.929 18.818 174.569 18.92 174.257 19.124C173.945 19.328 173.693 19.616 173.501 19.988C173.321 20.36 173.231 20.792 173.231 21.284ZM190.931 26H188.051V20.69C188.051 20.066 187.931 19.616 187.691 19.34C187.463 19.052 187.157 18.908 186.773 18.908C186.509 18.908 186.239 18.98 185.963 19.124C185.687 19.268 185.435 19.466 185.207 19.718C184.991 19.97 184.823 20.258 184.703 20.582V26H181.823V16.55H184.415V18.134C184.655 17.762 184.955 17.444 185.315 17.18C185.675 16.916 186.089 16.718 186.557 16.586C187.025 16.442 187.535 16.37 188.087 16.37C188.699 16.37 189.191 16.484 189.563 16.712C189.947 16.928 190.235 17.216 190.427 17.576C190.631 17.936 190.763 18.326 190.823 18.746C190.895 19.154 190.931 19.556 190.931 19.952V26Z" fill="black"/>
</svg>
