<svg width="228" height="57" viewBox="0 0 228 57" fill="none" xmlns="http://www.w3.org/2000/svg">
<g filter="url(#filter0_d_616_9157)">
<rect x="12" y="12" width="206" height="34" fill="#D9D9D9" stroke="black" stroke-width="4"/>
<g filter="url(#filter1_d_616_9157)">
<rect x="6" y="6" width="205" height="34" fill="#1E1E1E" stroke="black" stroke-width="4"/>
<path d="M30.0375 19.964C30.0015 19.904 29.8755 19.814 29.6595 19.694C29.4435 19.562 29.1735 19.424 28.8495 19.28C28.5255 19.136 28.1715 19.01 27.7875 18.902C27.4035 18.794 27.0195 18.74 26.6355 18.74C26.1315 18.74 25.7415 18.83 25.4655 19.01C25.1895 19.178 25.0515 19.442 25.0515 19.802C25.0515 20.09 25.1535 20.318 25.3575 20.486C25.5735 20.654 25.8795 20.804 26.2755 20.936C26.6715 21.056 27.1575 21.2 27.7335 21.368C28.5495 21.584 29.2575 21.848 29.8575 22.16C30.4575 22.46 30.9135 22.85 31.2255 23.33C31.5495 23.81 31.7115 24.446 31.7115 25.238C31.7115 25.958 31.5795 26.57 31.3155 27.074C31.0515 27.566 30.6915 27.968 30.2355 28.28C29.7915 28.58 29.2815 28.802 28.7055 28.946C28.1295 29.078 27.5355 29.144 26.9235 29.144C26.2995 29.144 25.6575 29.084 24.9975 28.964C24.3495 28.832 23.7255 28.652 23.1255 28.424C22.5255 28.184 21.9735 27.896 21.4695 27.56L22.7655 24.986C22.8135 25.046 22.9695 25.16 23.2335 25.328C23.4975 25.484 23.8215 25.652 24.2055 25.832C24.6015 26 25.0395 26.15 25.5195 26.282C25.9995 26.414 26.4855 26.48 26.9775 26.48C27.5055 26.48 27.8955 26.396 28.1475 26.228C28.4115 26.06 28.5435 25.826 28.5435 25.526C28.5435 25.202 28.4055 24.95 28.1295 24.77C27.8655 24.59 27.4995 24.428 27.0315 24.284C26.5755 24.14 26.0475 23.978 25.4475 23.798C24.6675 23.558 24.0195 23.288 23.5035 22.988C22.9995 22.688 22.6215 22.322 22.3695 21.89C22.1295 21.458 22.0095 20.918 22.0095 20.27C22.0095 19.37 22.2195 18.614 22.6395 18.002C23.0715 17.378 23.6475 16.91 24.3675 16.598C25.0875 16.274 25.8735 16.112 26.7255 16.112C27.3255 16.112 27.9015 16.184 28.4535 16.328C29.0175 16.472 29.5395 16.652 30.0195 16.868C30.5115 17.084 30.9495 17.3 31.3335 17.516L30.0375 19.964ZM37.7277 29.18C36.9237 29.18 36.2097 29.054 35.5857 28.802C34.9617 28.538 34.4277 28.184 33.9837 27.74C33.5517 27.296 33.2217 26.786 32.9937 26.21C32.7657 25.622 32.6517 25.01 32.6517 24.374C32.6517 23.462 32.8497 22.634 33.2457 21.89C33.6537 21.134 34.2357 20.528 34.9917 20.072C35.7477 19.604 36.6597 19.37 37.7277 19.37C38.7957 19.37 39.7017 19.598 40.4457 20.054C41.2017 20.51 41.7777 21.11 42.1737 21.854C42.5697 22.586 42.7677 23.384 42.7677 24.248C42.7677 24.416 42.7557 24.584 42.7317 24.752C42.7197 24.908 42.7077 25.046 42.6957 25.166H35.7117C35.7477 25.586 35.8617 25.94 36.0537 26.228C36.2577 26.516 36.5157 26.738 36.8277 26.894C37.1397 27.038 37.4697 27.11 37.8177 27.11C38.2497 27.11 38.6517 27.008 39.0237 26.804C39.4077 26.6 39.6717 26.324 39.8157 25.976L42.2637 26.66C42.0237 27.152 41.6817 27.59 41.2377 27.974C40.8057 28.346 40.2897 28.64 39.6897 28.856C39.1017 29.072 38.4477 29.18 37.7277 29.18ZM35.6397 23.402H39.7437C39.6957 23.006 39.5817 22.664 39.4017 22.376C39.2217 22.076 38.9817 21.848 38.6817 21.692C38.3817 21.524 38.0517 21.44 37.6917 21.44C37.3197 21.44 36.9837 21.524 36.6837 21.692C36.3957 21.848 36.1617 22.076 35.9817 22.376C35.8017 22.664 35.6877 23.006 35.6397 23.402ZM48.591 29.18C47.787 29.18 47.073 29.054 46.449 28.802C45.825 28.538 45.291 28.184 44.847 27.74C44.415 27.296 44.085 26.786 43.857 26.21C43.629 25.622 43.515 25.01 43.515 24.374C43.515 23.462 43.713 22.634 44.109 21.89C44.517 21.134 45.099 20.528 45.855 20.072C46.611 19.604 47.523 19.37 48.591 19.37C49.659 19.37 50.565 19.598 51.309 20.054C52.065 20.51 52.641 21.11 53.037 21.854C53.433 22.586 53.631 23.384 53.631 24.248C53.631 24.416 53.619 24.584 53.595 24.752C53.583 24.908 53.571 25.046 53.559 25.166H46.575C46.611 25.586 46.725 25.94 46.917 26.228C47.121 26.516 47.379 26.738 47.691 26.894C48.003 27.038 48.333 27.11 48.681 27.11C49.113 27.11 49.515 27.008 49.887 26.804C50.271 26.6 50.535 26.324 50.679 25.976L53.127 26.66C52.887 27.152 52.545 27.59 52.101 27.974C51.669 28.346 51.153 28.64 50.553 28.856C49.965 29.072 49.311 29.18 48.591 29.18ZM46.503 23.402H50.607C50.559 23.006 50.445 22.664 50.265 22.376C50.085 22.076 49.845 21.848 49.545 21.692C49.245 21.524 48.915 21.44 48.555 21.44C48.183 21.44 47.847 21.524 47.547 21.692C47.259 21.848 47.025 22.076 46.845 22.376C46.665 22.664 46.551 23.006 46.503 23.402ZM59.3715 29V16.22H64.1415C65.5455 16.22 66.7155 16.508 67.6515 17.084C68.5995 17.648 69.3135 18.416 69.7935 19.388C70.2735 20.348 70.5135 21.416 70.5135 22.592C70.5135 23.888 70.2495 25.016 69.7215 25.976C69.1935 26.936 68.4495 27.68 67.4895 28.208C66.5415 28.736 65.4255 29 64.1415 29H59.3715ZM67.5075 22.592C67.5075 21.848 67.3755 21.194 67.1115 20.63C66.8475 20.054 66.4635 19.61 65.9595 19.298C65.4555 18.974 64.8495 18.812 64.1415 18.812H62.3235V26.408H64.1415C64.8615 26.408 65.4675 26.246 65.9595 25.922C66.4635 25.586 66.8475 25.13 67.1115 24.554C67.3755 23.966 67.5075 23.312 67.5075 22.592ZM76.5402 29.18C75.7362 29.18 75.0222 29.054 74.3982 28.802C73.7742 28.538 73.2402 28.184 72.7962 27.74C72.3642 27.296 72.0342 26.786 71.8062 26.21C71.5782 25.622 71.4642 25.01 71.4642 24.374C71.4642 23.462 71.6622 22.634 72.0582 21.89C72.4662 21.134 73.0482 20.528 73.8042 20.072C74.5602 19.604 75.4722 19.37 76.5402 19.37C77.6082 19.37 78.5142 19.598 79.2582 20.054C80.0142 20.51 80.5902 21.11 80.9862 21.854C81.3822 22.586 81.5802 23.384 81.5802 24.248C81.5802 24.416 81.5682 24.584 81.5442 24.752C81.5322 24.908 81.5202 25.046 81.5082 25.166H74.5242C74.5602 25.586 74.6742 25.94 74.8662 26.228C75.0702 26.516 75.3282 26.738 75.6402 26.894C75.9522 27.038 76.2822 27.11 76.6302 27.11C77.0622 27.11 77.4642 27.008 77.8362 26.804C78.2202 26.6 78.4842 26.324 78.6282 25.976L81.0762 26.66C80.8362 27.152 80.4942 27.59 80.0502 27.974C79.6182 28.346 79.1022 28.64 78.5022 28.856C77.9142 29.072 77.2602 29.18 76.5402 29.18ZM74.4522 23.402H78.5562C78.5082 23.006 78.3942 22.664 78.2142 22.376C78.0342 22.076 77.7942 21.848 77.4942 21.692C77.1942 21.524 76.8642 21.44 76.5042 21.44C76.1322 21.44 75.7962 21.524 75.4962 21.692C75.2082 21.848 74.9742 22.076 74.7942 22.376C74.6142 22.664 74.5002 23.006 74.4522 23.402ZM86.5035 29.18C85.6995 29.18 84.9135 29.048 84.1455 28.784C83.3775 28.52 82.7295 28.13 82.2015 27.614L83.1915 25.796C83.7675 26.216 84.3255 26.534 84.8655 26.75C85.4175 26.966 85.9335 27.074 86.4135 27.074C86.7855 27.074 87.0735 27.014 87.2775 26.894C87.4815 26.774 87.5835 26.588 87.5835 26.336C87.5835 26.156 87.5235 26.018 87.4035 25.922C87.2835 25.814 87.0975 25.718 86.8455 25.634C86.6055 25.55 86.3055 25.46 85.9455 25.364C85.2255 25.124 84.6255 24.89 84.1455 24.662C83.6655 24.434 83.3055 24.158 83.0655 23.834C82.8255 23.498 82.7055 23.066 82.7055 22.538C82.7055 21.902 82.8615 21.35 83.1735 20.882C83.4975 20.402 83.9535 20.03 84.5415 19.766C85.1295 19.502 85.8315 19.37 86.6475 19.37C87.2955 19.37 87.9255 19.472 88.5375 19.676C89.1615 19.88 89.7435 20.222 90.2835 20.702L89.1675 22.502C88.6275 22.13 88.1475 21.86 87.7275 21.692C87.3075 21.524 86.8995 21.44 86.5035 21.44C86.2995 21.44 86.1135 21.464 85.9455 21.512C85.7775 21.56 85.6395 21.644 85.5315 21.764C85.4355 21.872 85.3875 22.016 85.3875 22.196C85.3875 22.376 85.4355 22.52 85.5315 22.628C85.6395 22.736 85.8015 22.832 86.0175 22.916C86.2455 22.988 86.5275 23.078 86.8635 23.186C87.6435 23.414 88.2915 23.648 88.8075 23.888C89.3235 24.116 89.7075 24.404 89.9595 24.752C90.2235 25.088 90.3555 25.538 90.3555 26.102C90.3555 27.062 90.0075 27.818 89.3115 28.37C88.6275 28.91 87.6915 29.18 86.5035 29.18ZM91.8328 29V19.55H94.7128V29H91.8328ZM91.8328 18.47V15.86H94.7128V18.47H91.8328ZM100.356 29.036C99.7323 29.036 99.1623 28.916 98.6463 28.676C98.1303 28.424 97.6863 28.082 97.3143 27.65C96.9543 27.206 96.6723 26.696 96.4683 26.12C96.2643 25.544 96.1623 24.926 96.1623 24.266C96.1623 23.57 96.2703 22.928 96.4863 22.34C96.7023 21.752 97.0023 21.236 97.3863 20.792C97.7823 20.336 98.2443 19.988 98.7723 19.748C99.3123 19.496 99.9063 19.37 100.554 19.37C101.262 19.37 101.886 19.526 102.426 19.838C102.966 20.138 103.398 20.558 103.722 21.098V19.55H106.224V28.352C106.224 29.312 105.99 30.14 105.522 30.836C105.066 31.532 104.424 32.066 103.596 32.438C102.78 32.822 101.832 33.014 100.752 33.014C99.7443 33.014 98.8743 32.846 98.1423 32.51C97.4223 32.186 96.7923 31.724 96.2523 31.124L97.8003 29.558C98.1483 29.954 98.5803 30.266 99.0963 30.494C99.6123 30.734 100.164 30.854 100.752 30.854C101.22 30.854 101.652 30.77 102.048 30.602C102.444 30.434 102.756 30.164 102.984 29.792C103.224 29.42 103.344 28.94 103.344 28.352V27.434C103.056 27.95 102.636 28.346 102.084 28.622C101.544 28.898 100.968 29.036 100.356 29.036ZM101.346 26.75C101.574 26.75 101.784 26.72 101.976 26.66C102.18 26.588 102.366 26.498 102.534 26.39C102.702 26.27 102.858 26.132 103.002 25.976C103.146 25.808 103.26 25.628 103.344 25.436V23.456C103.224 23.12 103.05 22.832 102.822 22.592C102.594 22.34 102.342 22.148 102.066 22.016C101.79 21.884 101.502 21.818 101.202 21.818C100.902 21.818 100.62 21.884 100.356 22.016C100.092 22.148 99.8643 22.34 99.6723 22.592C99.4923 22.832 99.3483 23.102 99.2403 23.402C99.1443 23.702 99.0963 24.014 99.0963 24.338C99.0963 24.686 99.1503 25.004 99.2583 25.292C99.3783 25.58 99.5403 25.838 99.7443 26.066C99.9483 26.282 100.188 26.45 100.464 26.57C100.74 26.69 101.034 26.75 101.346 26.75ZM117.306 29H114.426V23.69C114.426 23.066 114.306 22.616 114.066 22.34C113.838 22.052 113.532 21.908 113.148 21.908C112.884 21.908 112.614 21.98 112.338 22.124C112.062 22.268 111.81 22.466 111.582 22.718C111.366 22.97 111.198 23.258 111.078 23.582V29H108.198V19.55H110.79V21.134C111.03 20.762 111.33 20.444 111.69 20.18C112.05 19.916 112.464 19.718 112.932 19.586C113.4 19.442 113.91 19.37 114.462 19.37C115.074 19.37 115.566 19.484 115.938 19.712C116.322 19.928 116.61 20.216 116.802 20.576C117.006 20.936 117.138 21.326 117.198 21.746C117.27 22.154 117.306 22.556 117.306 22.952V29ZM131.323 19.964C131.287 19.904 131.161 19.814 130.945 19.694C130.729 19.562 130.459 19.424 130.135 19.28C129.811 19.136 129.457 19.01 129.073 18.902C128.689 18.794 128.305 18.74 127.921 18.74C127.417 18.74 127.027 18.83 126.751 19.01C126.475 19.178 126.337 19.442 126.337 19.802C126.337 20.09 126.439 20.318 126.643 20.486C126.859 20.654 127.165 20.804 127.561 20.936C127.957 21.056 128.443 21.2 129.019 21.368C129.835 21.584 130.543 21.848 131.143 22.16C131.743 22.46 132.199 22.85 132.511 23.33C132.835 23.81 132.997 24.446 132.997 25.238C132.997 25.958 132.865 26.57 132.601 27.074C132.337 27.566 131.977 27.968 131.521 28.28C131.077 28.58 130.567 28.802 129.991 28.946C129.415 29.078 128.821 29.144 128.209 29.144C127.585 29.144 126.943 29.084 126.283 28.964C125.635 28.832 125.011 28.652 124.411 28.424C123.811 28.184 123.259 27.896 122.755 27.56L124.051 24.986C124.099 25.046 124.255 25.16 124.519 25.328C124.783 25.484 125.107 25.652 125.491 25.832C125.887 26 126.325 26.15 126.805 26.282C127.285 26.414 127.771 26.48 128.263 26.48C128.791 26.48 129.181 26.396 129.433 26.228C129.697 26.06 129.829 25.826 129.829 25.526C129.829 25.202 129.691 24.95 129.415 24.77C129.151 24.59 128.785 24.428 128.317 24.284C127.861 24.14 127.333 23.978 126.733 23.798C125.953 23.558 125.305 23.288 124.789 22.988C124.285 22.688 123.907 22.322 123.655 21.89C123.415 21.458 123.295 20.918 123.295 20.27C123.295 19.37 123.505 18.614 123.925 18.002C124.357 17.378 124.933 16.91 125.653 16.598C126.373 16.274 127.159 16.112 128.011 16.112C128.611 16.112 129.187 16.184 129.739 16.328C130.303 16.472 130.825 16.652 131.305 16.868C131.797 17.084 132.235 17.3 132.619 17.516L131.323 19.964ZM138.995 29.18C138.191 29.18 137.471 29.048 136.835 28.784C136.211 28.52 135.683 28.16 135.251 27.704C134.819 27.248 134.489 26.726 134.261 26.138C134.045 25.55 133.937 24.932 133.937 24.284C133.937 23.624 134.045 23 134.261 22.412C134.489 21.824 134.819 21.302 135.251 20.846C135.683 20.39 136.211 20.03 136.835 19.766C137.471 19.502 138.191 19.37 138.995 19.37C139.799 19.37 140.513 19.502 141.137 19.766C141.761 20.03 142.289 20.39 142.721 20.846C143.153 21.302 143.483 21.824 143.711 22.412C143.939 23 144.053 23.624 144.053 24.284C144.053 24.932 143.939 25.55 143.711 26.138C143.483 26.726 143.153 27.248 142.721 27.704C142.289 28.16 141.761 28.52 141.137 28.784C140.513 29.048 139.799 29.18 138.995 29.18ZM136.889 24.284C136.889 24.776 136.979 25.208 137.159 25.58C137.351 25.952 137.603 26.24 137.915 26.444C138.227 26.648 138.587 26.75 138.995 26.75C139.391 26.75 139.745 26.648 140.057 26.444C140.381 26.228 140.633 25.934 140.813 25.562C140.993 25.19 141.083 24.764 141.083 24.284C141.083 23.792 140.993 23.36 140.813 22.988C140.633 22.616 140.381 22.328 140.057 22.124C139.745 21.92 139.391 21.818 138.995 21.818C138.587 21.818 138.227 21.92 137.915 22.124C137.603 22.328 137.351 22.616 137.159 22.988C136.979 23.36 136.889 23.792 136.889 24.284ZM145.445 15.86H148.325V25.634C148.325 26.03 148.397 26.312 148.541 26.48C148.685 26.648 148.889 26.732 149.153 26.732C149.333 26.732 149.513 26.708 149.693 26.66C149.885 26.6 150.053 26.534 150.197 26.462L150.575 28.622C150.215 28.79 149.801 28.922 149.333 29.018C148.865 29.114 148.427 29.162 148.019 29.162C147.203 29.162 146.567 28.946 146.111 28.514C145.667 28.07 145.445 27.446 145.445 26.642V15.86ZM151.421 25.598V19.55H154.301V24.968C154.301 25.544 154.415 25.988 154.643 26.3C154.871 26.6 155.195 26.75 155.615 26.75C155.879 26.75 156.131 26.708 156.371 26.624C156.611 26.528 156.845 26.378 157.073 26.174C157.301 25.97 157.505 25.706 157.685 25.382V19.55H160.565V25.796C160.565 26.084 160.607 26.288 160.691 26.408C160.787 26.516 160.949 26.582 161.177 26.606V29C160.913 29.048 160.679 29.084 160.475 29.108C160.283 29.132 160.109 29.144 159.953 29.144C159.449 29.144 159.047 29.042 158.747 28.838C158.447 28.622 158.261 28.322 158.189 27.938L158.135 27.362C157.703 27.986 157.163 28.448 156.515 28.748C155.879 29.036 155.165 29.18 154.373 29.18C153.413 29.18 152.681 28.874 152.177 28.262C151.673 27.65 151.421 26.762 151.421 25.598ZM168.863 28.496C168.599 28.604 168.305 28.712 167.981 28.82C167.669 28.928 167.339 29.012 166.991 29.072C166.643 29.144 166.301 29.18 165.965 29.18C165.485 29.18 165.041 29.102 164.633 28.946C164.237 28.778 163.919 28.508 163.679 28.136C163.451 27.764 163.337 27.272 163.337 26.66V21.728H162.131V19.55H163.337V16.544H166.217V19.55H168.143V21.728H166.217V25.67C166.217 25.982 166.295 26.21 166.451 26.354C166.607 26.486 166.805 26.552 167.045 26.552C167.249 26.552 167.465 26.516 167.693 26.444C167.933 26.372 168.137 26.294 168.305 26.21L168.863 28.496ZM169.985 29V19.55H172.865V29H169.985ZM169.985 18.47V15.86H172.865V18.47H169.985ZM179.337 29.18C178.533 29.18 177.813 29.048 177.177 28.784C176.553 28.52 176.025 28.16 175.593 27.704C175.161 27.248 174.831 26.726 174.603 26.138C174.387 25.55 174.279 24.932 174.279 24.284C174.279 23.624 174.387 23 174.603 22.412C174.831 21.824 175.161 21.302 175.593 20.846C176.025 20.39 176.553 20.03 177.177 19.766C177.813 19.502 178.533 19.37 179.337 19.37C180.141 19.37 180.855 19.502 181.479 19.766C182.103 20.03 182.631 20.39 183.063 20.846C183.495 21.302 183.825 21.824 184.053 22.412C184.281 23 184.395 23.624 184.395 24.284C184.395 24.932 184.281 25.55 184.053 26.138C183.825 26.726 183.495 27.248 183.063 27.704C182.631 28.16 182.103 28.52 181.479 28.784C180.855 29.048 180.141 29.18 179.337 29.18ZM177.231 24.284C177.231 24.776 177.321 25.208 177.501 25.58C177.693 25.952 177.945 26.24 178.257 26.444C178.569 26.648 178.929 26.75 179.337 26.75C179.733 26.75 180.087 26.648 180.399 26.444C180.723 26.228 180.975 25.934 181.155 25.562C181.335 25.19 181.425 24.764 181.425 24.284C181.425 23.792 181.335 23.36 181.155 22.988C180.975 22.616 180.723 22.328 180.399 22.124C180.087 21.92 179.733 21.818 179.337 21.818C178.929 21.818 178.569 21.92 178.257 22.124C177.945 22.328 177.693 22.616 177.501 22.988C177.321 23.36 177.231 23.792 177.231 24.284ZM194.931 29H192.051V23.69C192.051 23.066 191.931 22.616 191.691 22.34C191.463 22.052 191.157 21.908 190.773 21.908C190.509 21.908 190.239 21.98 189.963 22.124C189.687 22.268 189.435 22.466 189.207 22.718C188.991 22.97 188.823 23.258 188.703 23.582V29H185.823V19.55H188.415V21.134C188.655 20.762 188.955 20.444 189.315 20.18C189.675 19.916 190.089 19.718 190.557 19.586C191.025 19.442 191.535 19.37 192.087 19.37C192.699 19.37 193.191 19.484 193.563 19.712C193.947 19.928 194.235 20.216 194.427 20.576C194.631 20.936 194.763 21.326 194.823 21.746C194.895 22.154 194.931 22.556 194.931 22.952V29Z" fill="#FCBF38"/>
</g>
<path d="M5.22567 40.7754L11.4997 47.0002" stroke="black" stroke-width="4"/>
<path d="M210.5 39.4999L217.48 46.6546" stroke="black" stroke-width="4"/>
<path d="M211.5 5.5L218.5 11.5" stroke="black" stroke-width="4"/>
</g>
<defs>
<filter id="filter0_d_616_9157" x="-2" y="-2" width="230" height="58.4199" filterUnits="userSpaceOnUse" color-interpolation-filters="sRGB">
<feFlood flood-opacity="0" result="BackgroundImageFix"/>
<feColorMatrix in="SourceAlpha" type="matrix" values="0 0 0 0 0 0 0 0 0 0 0 0 0 0 0 0 0 0 127 0" result="hardAlpha"/>
<feOffset dx="3" dy="3"/>
<feGaussianBlur stdDeviation="2.5"/>
<feColorMatrix type="matrix" values="0 0 0 0 0 0 0 0 0 0 0 0 0 0 0 0 0 0 0.25 0"/>
<feBlend mode="normal" in2="BackgroundImageFix" result="effect1_dropShadow_616_9157"/>
<feBlend mode="normal" in="SourceGraphic" in2="effect1_dropShadow_616_9157" result="shape"/>
</filter>
<filter id="filter1_d_616_9157" x="0" y="4" width="217" height="46" filterUnits="userSpaceOnUse" color-interpolation-filters="sRGB">
<feFlood flood-opacity="0" result="BackgroundImageFix"/>
<feColorMatrix in="SourceAlpha" type="matrix" values="0 0 0 0 0 0 0 0 0 0 0 0 0 0 0 0 0 0 127 0" result="hardAlpha"/>
<feOffset dy="4"/>
<feGaussianBlur stdDeviation="2"/>
<feComposite in2="hardAlpha" operator="out"/>
<feColorMatrix type="matrix" values="0 0 0 0 0 0 0 0 0 0 0 0 0 0 0 0 0 0 0.25 0"/>
<feBlend mode="normal" in2="BackgroundImageFix" result="effect1_dropShadow_616_9157"/>
<feBlend mode="normal" in="SourceGraphic" in2="effect1_dropShadow_616_9157" result="shape"/>
</filter>
</defs>
</svg>
